<svg width="30" height="26" viewBox="0 0 30 26" fill="none" xmlns="http://www.w3.org/2000/svg">
<path d="M0 22.3036V11.9158C0.0548 10.8165 0.9447 10.0227 1.92245 10.0095H6.5751C7.905 8.98818 8.84753 7.57067 10.1292 6.54425C10.5816 6.18345 10.9316 5.78227 11.1793 5.3407C11.9846 3.75867 11.4967 1.91684 12.6413 0.655713C14.9415 -0.331339 17.6971 1.04949 18.4733 3.21629C19.0834 4.9858 18.6746 6.75045 17.916 8.31323C20.6623 8.30868 23.4087 8.33093 26.155 8.34553C28.3909 8.51248 29.9851 10.0178 30 12.1581C29.9939 14.315 28.1344 15.8836 26.155 15.9223H22.924C22.8163 16.5577 22.6063 17.1339 22.294 17.6509C22.4749 18.9795 22.0608 20.282 21.2601 21.2212C20.8207 28.8899 10.774 24.3402 7.01127 24.226H1.92245C0.815425 24.1736 0.0132 23.2863 0 22.3036ZM6.93053 22.3036C9.94115 22.3684 20.2283 26.92 19.2407 20.3973C20.3293 19.8105 20.7482 18.2401 20.0808 17.247C21.0949 16.2469 21.3837 14.9904 20.4039 13.9998C21.3732 13.9998 22.3317 13.9944 23.2795 13.9837C24.2273 13.9729 25.1858 13.9675 26.1551 13.9675C27.2644 13.9442 28.0331 13.1304 28.0452 12.1582C28.0199 11.0088 27.1474 10.2798 26.1551 10.268C22.3955 10.2678 18.6893 10.2361 15.2019 10.2357C15.5158 7.71665 18.5212 4.29609 15.4523 2.31164C14.9611 2.07034 14.5682 1.96792 14.0549 2.06122C13.9688 2.10429 13.9203 2.14739 13.9096 2.19047C13.8988 2.23354 13.8826 2.30354 13.8611 2.40047C13.535 4.39722 13.2306 6.39372 11.6802 7.7155C9.9736 9.02408 8.96733 11.0842 7.01137 11.9159H6.9306L6.93053 22.3036Z" fill="#C4C4C4"/>
</svg>
