<svg width="24" height="28" viewBox="0 0 24 28" fill="none" xmlns="http://www.w3.org/2000/svg">
<path d="M12 0.571289C18.1543 0.571289 23.1428 5.55986 23.1428 11.7141C23.1428 16.4227 19.8343 21.5541 13.3028 27.1633C12.9397 27.4753 12.4766 27.6466 11.9978 27.6462C11.5191 27.6458 11.0563 27.4736 10.6937 27.161L10.2617 26.7861C4.0194 21.3233 0.857117 16.3176 0.857117 11.7141C0.857117 5.55986 5.84569 0.571289 12 0.571289ZM12 7.42843C10.8633 7.42843 9.77324 7.87996 8.96952 8.68369C8.16579 9.48742 7.71426 10.5775 7.71426 11.7141C7.71426 12.8508 8.16579 13.9409 8.96952 14.7446C9.77324 15.5483 10.8633 15.9999 12 15.9999C13.1366 15.9999 14.2267 15.5483 15.0304 14.7446C15.8342 13.9409 16.2857 12.8508 16.2857 11.7141C16.2857 10.5775 15.8342 9.48742 15.0304 8.68369C14.2267 7.87996 13.1366 7.42843 12 7.42843Z" fill="#C4C4C4"/>
</svg>
