<svg width="32" height="32" viewBox="0 0 32 32" fill="none" xmlns="http://www.w3.org/2000/svg">
<path d="M30.375 0.375H1.625C0.933594 0.375 0.375 0.933594 0.375 1.625V30.375C0.375 31.0664 0.933594 31.625 1.625 31.625H30.375C31.0664 31.625 31.625 31.0664 31.625 30.375V1.625C31.625 0.933594 31.0664 0.375 30.375 0.375ZM23.5 16.9375C23.5 17.1094 23.3594 17.25 23.1875 17.25H17.25V23.1875C17.25 23.3594 17.1094 23.5 16.9375 23.5H15.0625C14.8906 23.5 14.75 23.3594 14.75 23.1875V17.25H8.8125C8.64062 17.25 8.5 17.1094 8.5 16.9375V15.0625C8.5 14.8906 8.64062 14.75 8.8125 14.75H14.75V8.8125C14.75 8.64062 14.8906 8.5 15.0625 8.5H16.9375C17.1094 8.5 17.25 8.64062 17.25 8.8125V14.75H23.1875C23.3594 14.75 23.5 14.8906 23.5 15.0625V16.9375Z" fill="black"/>
</svg>
